<svg width="400" height="400" viewBox="0 0 400 400" fill="none" xmlns="http://www.w3.org/2000/svg">
<rect width="400" height="400" fill="white"/>
<g id="coder-illustration" opacity="0.9">
<path d="M150 80 L250 30 L300 80 L350 50 L320 120 L300 100 L250 140 L220 110 Z" fill="#646cff" stroke="#4c63d2" stroke-width="2"/>
<path d="M180 120 L280 100 L320 140 L360 110 L330 180 L310 160 L260 200 L230 170 Z" fill="#7c3aed" stroke="#5b21b6" stroke-width="2"/>
<path d="M120 140 C140 160, 160 160, 180 140 C200 120, 220 120, 240 140 C260 160, 280 160, 300 140 C320 120, 340 120, 360 140" fill="#1f2937" stroke="#374151" stroke-width="2"/>
<path d="M140 160 L260 160 L280 180 L280 200 L300 220 L320 220 L340 200 L360 200 L380 220" fill="#374151" stroke="#4b5563" stroke-width="2"/>
<path d="M160 200 L240 200 L260 220 L260 240 L280 260" fill="#4b5563" stroke="#6b7280" stroke-width="2"/>
<path d="M120 250 C130 280, 150 280, 160 250 C170 220, 190 220, 200 250 C210 280, 230 280, 240 250 C250 220, 270 220, 280 250" fill="#0ea5e9" stroke="#0284c7" stroke-width="4"/>
<circle cx="200" cy="70" r="15" fill="#f59e0b" stroke="#d97706" stroke-width="2"/>
<text x="200" y="347" text-anchor="middle" font-family="monospace" font-size="14" fill="#6b7280">CODING FOR THE FUTURE</text>
<defs>
<linearGradient id="codeGradient" x1="0%" y1="0%" x2="100%" y2="100%">
<stop offset="0%" style="stop-color:#7c3aed;stop-opacity:1" />
<stop offset="50%" style="stop-color:#646cff;stop-opacity:1" />
<stop offset="100%" style="stop-color:#0ea5e9;stop-opacity:1" />
</linearGradient>
</defs>
</g>
</svg>